<?xml version="1.0" standalone="no"?>
<!DOCTYPE svg PUBLIC "-//W3C//DTD SVG 20010904//EN"
 "http://www.w3.org/TR/2001/REC-SVG-20010904/DTD/svg10.dtd">
<svg version="1.0" xmlns="http://www.w3.org/2000/svg"
 width="350.000000pt" height="160.000000pt" viewBox="0 0 350.000000 160.000000"
 preserveAspectRatio="xMidYMid meet">

<g transform="translate(0.000000,160.000000) scale(0.100000,-0.100000)"
fill="#000000" stroke="none">
<path d="M180 1500 c0 -55 -2 -100 -5 -100 -20 0 -65 33 -65 48 0 11 -9 17
-25 18 l-25 2 0 -167 0 -166 31 -38 30 -37 -20 -235 c-25 -283 -26 -345 -5
-414 8 -29 14 -54 12 -55 -2 -1 -25 -11 -53 -22 -36 -14 -51 -26 -53 -42 -4
-26 11 -28 48 -7 14 8 48 14 75 14 28 0 61 -6 75 -14 32 -18 88 -18 120 0 32
18 118 18 150 0 37 -21 65 -19 67 5 1 11 -3 20 -8 20 -6 0 -31 9 -56 21 -52
24 -101 22 -174 -7 -45 -17 -48 -17 -88 0 -22 11 -41 22 -41 27 0 12 80 47
135 59 95 22 209 -10 290 -81 22 -20 52 -63 72 -104 l34 -70 -23 -18 c-12 -10
-48 -34 -81 -53 l-59 -34 -78 41 c-89 48 -138 84 -128 94 15 16 95 17 124 2
47 -24 79 -25 82 -2 2 15 -6 23 -35 33 -104 37 -112 37 -161 18 -76 -29 -90
-29 -141 -7 -68 29 -91 28 -91 -4 0 -19 5 -25 23 -25 12 -1 33 -7 47 -15 14
-8 35 -14 47 -15 13 0 53 -21 90 -46 36 -25 102 -63 145 -85 l79 -40 57 32
c128 72 272 195 257 220 -5 7 -4 10 3 5 15 -9 59 69 84 147 25 80 27 222 3
304 -30 104 -114 240 -139 226 -6 -3 -8 -2 -3 2 4 5 -5 21 -20 37 -26 27 -26
28 -7 42 12 9 23 11 29 5 5 -5 29 -9 54 -9 35 0 51 6 73 27 33 31 36 59 8 66
-11 3 -20 1 -20 -4 0 -18 -41 -49 -65 -49 -31 0 -31 1 0 46 30 44 45 94 45
152 0 35 -3 42 -20 42 -16 0 -20 -7 -20 -34 0 -45 -24 -112 -56 -153 -26 -34
-121 -90 -132 -77 -4 4 -1 9 6 11 7 3 27 17 44 31 95 80 89 260 -11 328 -36
24 -36 24 -45 4 -7 -16 -5 -24 12 -36 31 -22 63 -70 56 -87 -3 -8 -17 -20 -31
-26 -21 -10 -30 -9 -50 4 -19 13 -27 14 -39 4 -21 -17 -17 -27 16 -44 37 -19
74 -19 104 1 18 11 26 12 32 3 4 -7 3 -9 -4 -5 -6 3 -13 -5 -17 -22 -10 -50
-44 -93 -88 -112 -47 -22 -74 -24 -109 -11 -26 10 -44 9 -40 -2 1 -4 -2 -6 -7
-5 -5 2 -11 -1 -12 -7 -2 -5 11 -14 29 -20 17 -5 32 -12 32 -16 0 -7 -124 -89
-133 -89 -3 0 -7 31 -11 69 -6 64 -5 73 18 108 21 33 24 51 25 126 2 87 1 87
-24 87 -20 0 -25 -5 -25 -25 0 -22 -4 -25 -35 -25 -31 0 -35 3 -35 25 0 18 -5
25 -20 25 -15 0 -20 -7 -20 -25 0 -22 -4 -25 -36 -25 l-35 0 3 51 c3 43 7 53
30 67 26 15 30 15 73 -6 57 -28 65 -28 65 1 0 33 -65 61 -124 55 l-46 -6 0 34
c0 36 8 42 28 22 17 -17 95 -14 123 5 31 22 57 21 110 -2 24 -11 46 -18 50
-15 15 9 -4 41 -34 57 -53 28 -88 30 -132 7 -21 -11 -49 -20 -61 -20 -37 0
-84 32 -84 58 0 15 -6 22 -20 22 -19 0 -20 -7 -20 -100z m-23 -140 c21 0 23
-5 23 -45 0 -45 0 -45 -35 -45 l-35 0 0 57 c0 44 3 54 12 45 7 -7 22 -12 35
-12z m243 -172 c0 -29 -7 -49 -22 -65 -20 -21 -30 -23 -122 -23 -89 0 -102 2
-123 22 -17 16 -23 32 -23 65 l0 43 145 0 145 0 0 -42z m-38 -180 c0 -29 2
-91 2 -137 1 -78 3 -85 29 -105 36 -29 34 -36 -8 -36 -26 0 -43 -8 -70 -35
l-35 -36 0 -104 0 -105 -27 -6 c-16 -4 -45 -15 -65 -25 -21 -11 -39 -19 -42
-19 -2 0 -10 26 -17 57 -9 47 -8 94 5 253 10 107 20 230 23 273 l6 77 98 0 99
0 2 -52z m406 -86 c161 -162 199 -418 89 -604 -27 -45 -143 -165 -132 -137 9
23 -47 131 -90 173 -19 20 -49 43 -65 51 -25 13 -30 22 -30 50 0 32 2 35 30
35 78 0 150 81 150 166 0 43 18 25 36 -36 13 -45 22 -60 36 -60 44 0 -1 131
-65 187 -38 33 -118 63 -169 63 -16 0 -49 -5 -74 -11 -51 -13 -67 -5 -77 41
-6 23 0 30 49 59 30 18 52 36 49 42 -3 5 0 7 7 4 7 -3 27 4 43 15 22 14 47 20
93 20 l62 0 58 -58z m-127 -191 c52 -52 36 -151 -31 -186 -56 -29 -66 -22 -74
48 -6 65 -27 104 -65 123 -48 24 -15 41 82 43 52 1 62 -2 88 -28z m-182 -67
c31 -26 31 -27 31 -124 l0 -98 -37 9 c-21 5 -59 9 -85 9 l-48 0 0 86 c0 81 1
87 29 115 36 36 70 37 110 3z"/>
<path d="M200 966 c0 -8 10 -16 23 -18 18 -2 23 -10 25 -40 5 -54 32 -52 32 2
0 33 3 40 20 40 11 0 20 7 20 15 0 12 -13 15 -60 15 -45 0 -60 -3 -60 -14z"/>
<path d="M1092 1014 c3 -92 4 -97 32 -121 25 -21 37 -24 75 -20 72 8 97 59 89
182 -3 46 -5 50 -28 50 -24 0 -25 -2 -28 -85 -2 -65 -6 -88 -19 -97 -23 -17
-30 -16 -53 7 -17 17 -20 33 -20 100 0 79 0 80 -26 80 l-26 0 4 -96z"/>
<path d="M1322 993 c3 -113 4 -118 25 -121 21 -3 22 1 25 70 l3 73 50 -72 c37
-54 56 -73 73 -73 22 0 22 2 22 120 l0 120 -25 0 c-23 0 -24 -3 -27 -72 l-3
-71 -48 71 c-38 58 -52 72 -72 72 l-26 0 3 -117z"/>
<path d="M1560 990 l0 -120 25 0 25 0 0 120 0 120 -25 0 -25 0 0 -120z"/>
<path d="M1634 1093 c3 -11 21 -64 39 -118 33 -97 35 -100 65 -103 18 -2 32
-2 32 0 0 4 65 195 75 221 7 16 3 18 -20 15 -25 -3 -31 -11 -52 -73 -13 -38
-26 -77 -29 -85 -3 -8 -17 22 -33 70 -25 78 -29 85 -55 88 -23 3 -27 0 -22
-15z"/>
<path d="M1870 990 l0 -120 80 0 c79 0 80 0 80 25 0 24 -3 25 -55 25 -52 0
-55 1 -55 25 0 23 4 25 45 25 38 0 45 3 45 20 0 17 -7 20 -46 20 -43 0 -45 1
-42 27 3 25 7 26 53 27 44 1 50 4 53 24 3 21 1 22 -77 22 l-81 0 0 -120z"/>
<path d="M2060 990 l0 -120 25 0 c23 0 25 4 25 40 0 35 3 40 23 40 18 0 28
-10 42 -40 15 -33 23 -40 47 -40 16 0 28 3 26 8 -2 4 -12 24 -23 44 -17 35
-17 39 -2 56 9 10 17 35 17 55 0 54 -35 77 -116 77 l-64 0 0 -120z m111 70
c10 -6 19 -19 19 -29 0 -45 -72 -56 -78 -13 -7 48 16 64 59 42z"/>
<path d="M2296 1089 c-31 -24 -35 -68 -8 -92 9 -8 38 -21 65 -27 35 -9 47 -17
47 -31 0 -30 -49 -37 -71 -11 -23 29 -69 30 -62 3 8 -32 39 -53 85 -58 57 -7
98 23 98 72 0 40 -15 53 -77 69 -56 14 -70 41 -27 52 21 5 31 2 45 -14 28 -35
67 -25 53 12 -9 22 -56 46 -92 46 -16 0 -41 -9 -56 -21z"/>
<path d="M2484 1097 c-2 -7 -3 -60 -2 -118 3 -99 4 -104 26 -107 22 -3 22 -2
22 117 0 115 -1 121 -20 121 -11 0 -23 -6 -26 -13z"/>
<path d="M2562 1088 c2 -18 10 -23 33 -23 l30 -1 3 -97 c3 -95 3 -97 27 -97
24 0 24 2 27 97 l3 97 30 1 c23 0 31 5 33 23 3 21 1 22 -93 22 -94 0 -96 -1
-93 -22z"/>
<path d="M2796 1043 c25 -44 40 -86 44 -118 4 -42 8 -50 28 -53 20 -3 22 1 22
40 0 24 6 52 13 63 8 11 28 46 46 78 l32 57 -29 0 c-24 0 -33 -7 -53 -45 -13
-25 -26 -45 -29 -45 -3 0 -16 20 -29 45 -20 38 -29 45 -53 45 l-30 0 38 -67z"/>
<path d="M3121 1085 c-83 -70 -48 -198 57 -212 67 -9 132 48 132 116 0 99
-115 157 -189 96z m106 -30 c67 -47 10 -170 -61 -133 -29 15 -36 28 -36 71 0
63 49 95 97 62z"/>
<path d="M3340 990 l0 -120 25 0 c23 0 25 3 25 50 l0 50 45 0 c38 0 45 3 45
20 0 17 -7 20 -45 20 -41 0 -45 2 -45 25 0 23 3 25 48 25 55 0 62 4 55 31 -5
17 -14 19 -79 19 l-74 0 0 -120z"/>
<path d="M2901 810 c-74 -18 -122 -76 -129 -154 -6 -75 4 -120 35 -156 37 -44
78 -62 143 -63 66 0 114 24 143 71 28 48 23 62 -21 62 -31 0 -41 -5 -50 -24
-14 -31 -69 -50 -106 -37 -43 17 -68 67 -63 129 4 59 31 97 78 107 34 8 85
-17 94 -45 5 -16 15 -20 46 -20 44 0 49 12 24 60 -29 55 -119 88 -194 70z"/>
<path d="M1090 625 l0 -185 115 0 115 0 0 35 0 35 -75 0 -75 0 0 150 0 150
-40 0 -40 0 0 -185z"/>
<path d="M1360 625 l0 -185 45 0 45 0 0 185 0 185 -45 0 -45 0 0 -185z"/>
<path d="M1510 625 l0 -185 41 0 41 0 -4 115 c-1 63 0 115 5 115 4 0 7 -5 7
-11 0 -6 18 -58 41 -115 l41 -105 35 3 c35 3 36 4 77 110 22 58 44 110 49 114
4 4 7 -45 7 -109 l0 -117 35 0 35 0 0 186 0 185 -51 -3 -52 -3 -43 -115 c-24
-63 -44 -121 -44 -127 0 -37 -21 0 -65 117 l-50 130 -52 0 -53 0 0 -185z"/>
<path d="M1990 625 l0 -185 131 0 130 0 -3 33 -3 32 -87 3 -88 3 0 39 0 39 68
3 67 3 3 33 3 32 -70 0 -71 0 0 40 0 40 85 0 85 0 0 35 0 35 -125 0 -125 0 0
-185z"/>
<path d="M2290 625 l0 -185 40 0 40 0 0 60 0 60 38 0 c37 0 39 -2 67 -60 29
-60 29 -60 72 -60 24 0 43 3 43 8 0 4 -16 34 -35 66 l-34 60 30 33 c23 27 29
43 29 81 0 93 -44 122 -190 122 l-100 0 0 -185z m198 103 c17 -15 15 -58 -5
-80 -11 -13 -30 -18 -65 -18 l-48 0 0 53 c0 30 2 56 4 58 8 8 101 -3 114 -13z"/>
<path d="M2640 625 l0 -185 40 0 40 0 0 185 0 185 -40 0 -40 0 0 -185z"/>
<path d="M3160 625 l0 -185 40 0 40 0 0 48 c0 40 5 53 29 76 l29 28 51 -76 52
-76 49 0 50 0 -75 108 -74 108 70 77 71 77 -49 0 c-47 1 -49 0 -125 -82 l-78
-83 0 83 0 82 -40 0 -40 0 0 -185z"/>
<path d="M1119 311 c-82 -82 30 -203 118 -127 22 19 28 32 28 66 0 82 -88 119
-146 61z m91 -21 c24 -24 25 -48 4 -78 -18 -26 -41 -28 -66 -5 -25 23 -23 68
4 87 29 20 34 20 58 -4z"/>
<path d="M1290 251 l0 -91 55 0 c42 0 55 3 55 15 0 10 -11 15 -35 15 l-34 0
-3 72 c-2 60 -6 73 -20 76 -16 3 -18 -6 -18 -87z"/>
<path d="M1420 251 l0 -91 55 0 c42 0 55 3 55 15 0 10 -11 15 -35 15 l-34 0
-3 72 c-2 60 -6 73 -20 76 -16 3 -18 -6 -18 -87z"/>
<path d="M1562 324 c-24 -17 -29 -56 -9 -72 6 -6 28 -14 47 -19 20 -5 35 -16
35 -24 0 -20 -39 -23 -55 -4 -16 19 -40 20 -40 1 0 -22 40 -46 76 -46 35 0 64
26 64 58 0 24 -11 33 -59 47 -19 6 -36 16 -39 23 -6 20 27 26 47 8 19 -17 51
-22 51 -7 0 16 -51 51 -74 51 -12 0 -32 -7 -44 -16z"/>
<path d="M1726 319 c-36 -28 -38 -105 -3 -137 32 -30 87 -29 115 1 12 13 22
26 22 30 0 13 -38 7 -50 -8 -18 -22 -47 -18 -65 9 -31 47 10 110 55 86 11 -6
20 -15 20 -20 0 -6 9 -10 20 -10 27 0 25 16 -5 45 -30 31 -73 32 -109 4z"/>
<path d="M1903 316 c-60 -52 -22 -156 56 -156 84 1 121 92 62 151 -37 36 -79
38 -118 5z m87 -26 c11 -11 20 -30 20 -42 0 -25 -27 -58 -48 -58 -24 0 -52 31
-52 57 0 23 31 63 50 63 6 0 19 -9 30 -20z"/>
<path d="M2070 250 c0 -83 1 -90 20 -90 19 0 20 7 20 90 0 83 -1 90 -20 90
-19 0 -20 -7 -20 -90z"/>
<path d="M2140 251 l0 -91 55 0 c42 0 55 3 55 15 0 10 -11 15 -35 15 l-34 0
-3 72 c-2 60 -6 73 -20 76 -16 3 -18 -6 -18 -87z"/>
<path d="M2330 250 l0 -90 55 0 c42 0 55 3 55 15 0 10 -11 15 -35 15 l-35 0 0
75 c0 68 -2 75 -20 75 -19 0 -20 -7 -20 -90z"/>
<path d="M2450 273 c0 -87 16 -113 69 -113 57 0 71 22 71 109 0 63 -2 72 -17
69 -14 -2 -17 -13 -14 -55 3 -63 -12 -95 -42 -91 -20 3 -23 11 -27 73 -4 56
-8 70 -22 73 -16 3 -18 -5 -18 -65z"/>
<path d="M2620 250 c0 -83 1 -90 20 -90 19 0 20 7 20 90 0 83 -1 90 -20 90
-19 0 -20 -7 -20 -90z"/>
<path d="M2690 250 c0 -85 1 -90 21 -90 20 0 21 4 17 50 -3 28 -2 50 1 50 4 0
14 -22 24 -50 24 -68 47 -67 73 3 l19 52 3 -52 c3 -45 6 -53 23 -53 18 0 20 6
17 88 -3 85 -3 87 -28 87 -21 0 -28 -8 -45 -57 -11 -32 -22 -58 -26 -58 -3 0
-16 27 -28 60 -19 51 -26 60 -47 60 -24 0 -24 -1 -24 -90z"/>
<path d="M2920 250 c0 -72 3 -90 14 -90 11 0 16 15 18 52 l3 53 37 -53 c56
-78 68 -71 68 39 0 80 -2 90 -17 87 -14 -3 -17 -12 -14 -51 1 -26 -1 -47 -6
-47 -4 0 -23 23 -41 50 -49 76 -62 68 -62 -40z"/>
<path d="M3097 333 c-4 -3 -7 -44 -7 -90 0 -76 2 -83 20 -83 19 0 20 7 20 90
0 68 -3 90 -13 90 -8 0 -17 -3 -20 -7z"/>
<path d="M3183 316 c-37 -32 -39 -93 -4 -130 21 -22 32 -25 83 -24 l58 2 0 48
0 48 -40 0 c-47 0 -58 -27 -13 -32 26 -3 26 -4 9 -20 -25 -25 -53 -22 -72 7
-20 31 -12 70 17 86 18 9 27 7 50 -10 50 -37 68 -20 24 24 -31 32 -75 32 -112
1z"/>
<path d="M3350 250 c0 -83 1 -90 20 -90 16 0 20 7 20 35 0 33 2 35 35 35 33 0
35 -2 35 -35 0 -28 4 -35 20 -35 19 0 20 7 20 90 0 83 -1 90 -20 90 -16 0 -20
-7 -20 -35 0 -33 -2 -35 -35 -35 -33 0 -35 2 -35 35 0 28 -4 35 -20 35 -19 0
-20 -7 -20 -90z"/>
</g>
</svg>
